<svg xmlns="http://www.w3.org/2000/svg" viewBox="0 0 455.431 455.431"><path d="M405.493 412.764c-69.689 56.889-287.289 56.889-355.556 0-69.689-56.889-62.578-300.089 0-364.089s292.978-64 355.556 0 69.689 307.201 0 364.089z" fill="#5ca4da"/><path d="M229.138 313.209c-62.578 49.778-132.267 75.378-197.689 76.8-48.356-82.489-38.4-283.022 18.489-341.333 51.2-52.622 211.911-62.578 304.356-29.867 22.755 93.867-24.178 213.333-125.156 294.4z" fill="#6dafe0"/><path d="m300.249 199.431-58.311 119.467h-28.444l-58.311-119.467v136.533h-49.778v-217.6h65.422l55.467 119.467 56.889-119.467h65.422v217.6h-48.356V199.431z" fill="#fff"/></svg>